<svg viewBox="0 0 160 114" fill="none" xmlns="http://www.w3.org/2000/svg">
    <style>
        path {
            fill: #1D1D1D;
        }
        @media (prefers-color-scheme: dark) {
            path {
                fill: #fff;
            }
        }
    </style>
    <path d="M143.567 0H72.409a15.569 15.569 0 0 0-15.568 15.568v21.516A31.137 31.137 0 0 1 25.704 68.22h-3.373a22.73 22.73 0 1 0 22.636 27.431 20.17 20.17 0 0 0 .28-1.546c.104-.758.177-1.526.208-2.294v-3.84a31.137 31.137 0 0 1 30.96-31.137h67.152a15.57 15.57 0 0 0 15.568-15.568V15.568A15.57 15.57 0 0 0 143.567 0ZM136.395 113.649c12.553 0 22.73-10.176 22.73-22.73 0-12.553-10.177-22.73-22.73-22.73s-22.73 10.177-22.73 22.73c0 12.554 10.177 22.73 22.73 22.73Z" fill="#1D1D1D"/>
    <path d="M79.57 113.649c12.554 0 22.73-10.176 22.73-22.73 0-12.553-10.176-22.73-22.73-22.73-12.553 0-22.73 10.177-22.73 22.73 0 12.554 10.177 22.73 22.73 22.73Z" fill="#1D1D1D"/>
</svg>
