<svg width="160" height="114" viewBox="0 0 160 114" fill="none" xmlns="http://www.w3.org/2000/svg">
<path d="M143.567 0H72.4091C68.2802 0 64.3203 1.64024 61.4006 4.55987C58.481 7.47951 56.8408 11.4394 56.8408 15.5684V37.0839C56.8408 45.3418 53.5603 53.2615 47.721 59.1008C41.8818 64.9401 33.962 68.2206 25.704 68.2206H22.3309C18.0546 68.2956 13.8863 69.5757 10.3049 71.9136C6.72349 74.2516 3.87439 77.5525 2.08499 81.4371C0.295594 85.3218 -0.361491 89.6324 0.189247 93.8738C0.739984 98.1151 2.47618 102.115 5.19835 105.414C7.92052 108.713 11.5182 111.177 15.5779 112.522C19.6376 113.868 23.9946 114.041 28.1483 113.021C32.3019 112.002 36.0837 109.831 39.0589 106.759C42.034 103.686 44.082 99.8363 44.9673 95.652C45.0815 95.1435 45.1749 94.6141 45.2476 94.1056C45.3513 93.3479 45.424 92.5799 45.4551 91.8119V91.7392C45.4551 91.5109 45.4551 91.2929 45.4551 91.075V90.94V87.9717C45.455 79.7442 48.7112 71.851 54.5124 66.0168C60.3135 60.1826 68.188 56.8816 76.4154 56.8349H143.567C147.696 56.8349 151.656 55.1947 154.576 52.275C157.495 49.3554 159.135 45.3955 159.135 41.2666V15.5684C159.135 11.4394 157.495 7.47951 154.576 4.55987C151.656 1.64024 147.696 0 143.567 0Z" fill="#1FAEE9"/>
<path d="M136.395 113.649C148.948 113.649 159.125 103.473 159.125 90.9192C159.125 78.3659 148.948 68.1895 136.395 68.1895C123.842 68.1895 113.665 78.3659 113.665 90.9192C113.665 103.473 123.842 113.649 136.395 113.649Z" fill="#FD5E53"/>
<path d="M79.5706 113.649C92.1239 113.649 102.3 103.473 102.3 90.9192C102.3 78.3659 92.1239 68.1895 79.5706 68.1895C67.0173 68.1895 56.8408 78.3659 56.8408 90.9192C56.8408 103.473 67.0173 113.649 79.5706 113.649Z" fill="#FF9900"/>
<path d="M128.279 36.513C132.761 36.513 136.395 32.8792 136.395 28.3967C136.395 23.9142 132.761 20.2804 128.279 20.2804C123.796 20.2804 120.163 23.9142 120.163 28.3967C120.163 32.8792 123.796 36.513 128.279 36.513Z" fill="white"/>
<path d="M107.988 36.513C112.47 36.513 116.104 32.8792 116.104 28.3967C116.104 23.9142 112.47 20.2804 107.988 20.2804C103.505 20.2804 99.8717 23.9142 99.8717 28.3967C99.8717 32.8792 103.505 36.513 107.988 36.513Z" fill="white"/>
<path d="M95.8031 28.3967V28.7081C95.8031 28.9883 95.8031 29.2582 95.7305 29.528C95.6578 29.7979 95.6682 29.9016 95.6267 30.0781C95.3101 31.5719 94.5786 32.9461 93.5161 34.0428C92.4536 35.1395 91.1033 35.9142 89.6203 36.278C88.1373 36.6418 86.5818 36.5798 85.1324 36.0993C83.683 35.6187 82.3986 34.739 81.4267 33.5613C80.4548 32.3835 79.8349 30.9555 79.6381 29.4413C79.4413 27.927 79.6757 26.388 80.3143 25.001C80.953 23.6139 81.9699 22.4352 83.2484 21.6002C84.5268 20.7652 86.0148 20.3077 87.5416 20.2804H87.8322C89.9232 20.3197 91.9186 21.1637 93.4032 22.6367C94.8879 24.1098 95.7474 26.0985 95.8031 28.1891V28.3967Z" fill="white"/>
</svg>
