<svg width="749" height="114" viewBox="0 0 749 114" fill="none" xmlns="http://www.w3.org/2000/svg">
<path d="M136.395 113.659C148.948 113.659 159.125 103.483 159.125 90.9296C159.125 78.3763 148.948 68.1998 136.395 68.1998C123.842 68.1998 113.665 78.3763 113.665 90.9296C113.665 103.483 123.842 113.659 136.395 113.659Z" fill="#FD5E53"/>
<path d="M79.5706 113.659C92.1239 113.659 102.3 103.483 102.3 90.9296C102.3 78.3763 92.1239 68.1998 79.5706 68.1998C67.0173 68.1998 56.8408 78.3763 56.8408 90.9296C56.8408 103.483 67.0173 113.659 79.5706 113.659Z" fill="#FF9900"/>
<path d="M143.567 0.010376H72.4091C68.2802 0.010376 64.3203 1.65061 61.4006 4.57025C58.481 7.48989 56.8408 11.4498 56.8408 15.5787V37.0942C56.8408 45.3522 53.5603 53.2719 47.721 59.1112C41.8818 64.9505 33.962 68.2309 25.704 68.2309H22.3309C18.0546 68.306 13.8863 69.5861 10.3049 71.924C6.7235 74.2619 3.87439 77.5629 2.08499 81.4475C0.295595 85.3322 -0.361491 89.6428 0.189247 93.8842C0.739984 98.1255 2.47618 102.125 5.19835 105.424C7.92052 108.723 11.5182 111.187 15.5779 112.533C19.6376 113.878 23.9946 114.051 28.1483 113.032C32.3019 112.012 36.0837 109.841 39.0589 106.769C42.034 103.696 44.082 99.8467 44.9673 95.6624C45.0815 95.1538 45.1749 94.6245 45.2476 94.116C45.3513 93.3583 45.424 92.5903 45.4551 91.8223V91.7496C45.4551 91.5213 45.4551 91.3033 45.4551 91.0853V90.9504V87.982C45.455 79.7546 48.7112 71.8614 54.5124 66.0272C60.3135 60.193 68.188 56.8919 76.4154 56.8453H143.567C147.696 56.8453 151.656 55.205 154.576 52.2854C157.495 49.3658 159.135 45.4059 159.135 41.2769V15.5787C159.135 11.4498 157.495 7.48989 154.576 4.57025C151.656 1.65061 147.696 0.010376 143.567 0.010376Z" fill="#1FAEE9"/>
<path d="M128.279 36.5234C132.761 36.5234 136.395 32.8896 136.395 28.4071C136.395 23.9245 132.761 20.2908 128.279 20.2908C123.796 20.2908 120.163 23.9245 120.163 28.4071C120.163 32.8896 123.796 36.5234 128.279 36.5234Z" fill="white"/>
<path d="M107.988 36.5234C112.47 36.5234 116.104 32.8896 116.104 28.4071C116.104 23.9245 112.47 20.2908 107.988 20.2908C103.505 20.2908 99.8717 23.9245 99.8717 28.4071C99.8717 32.8896 103.505 36.5234 107.988 36.5234Z" fill="white"/>
<path d="M95.8031 28.4071V28.7184C95.8031 28.9987 95.8031 29.2685 95.7305 29.5384C95.6578 29.8082 95.6682 29.912 95.6267 30.0885C95.3101 31.5823 94.5786 32.9564 93.5161 34.0532C92.4536 35.1499 91.1033 35.9246 89.6203 36.2884C88.1373 36.6522 86.5818 36.5902 85.1324 36.1096C83.683 35.6291 82.3986 34.7494 81.4267 33.5716C80.4548 32.3939 79.8349 30.9659 79.6381 29.4516C79.4413 27.9374 79.6757 26.3983 80.3143 25.0113C80.953 23.6243 81.9699 22.4456 83.2484 21.6106C84.5268 20.7755 86.0148 20.3181 87.5416 20.2908H87.8322C89.9232 20.3301 91.9186 21.1741 93.4032 22.6471C94.8879 24.1201 95.7474 26.1088 95.8031 28.1995V28.4071Z" fill="white"/>
<path d="M293.262 85.1175L280.745 41.2666C280.467 40.2998 279.882 39.4494 279.079 38.8431C278.276 38.2368 277.299 37.9072 276.293 37.9038H259.821C258.807 37.9023 257.82 38.2349 257.013 38.8502C256.207 39.4655 255.625 40.3293 255.358 41.3081L243.225 85.1175C243.13 85.5867 242.875 86.0086 242.505 86.3116C242.134 86.6147 241.67 86.7802 241.191 86.7802C240.712 86.7802 240.248 86.6147 239.877 86.3116C239.507 86.0086 239.252 85.5867 239.157 85.1175L227.647 41.4015C227.388 40.4122 226.808 39.5365 225.999 38.9113C225.19 38.286 224.196 37.9463 223.173 37.9453H209.234C208.517 37.9454 207.81 38.1118 207.167 38.4314C206.525 38.7511 205.966 39.2153 205.533 39.7876C205.101 40.3598 204.807 41.0246 204.675 41.7297C204.543 42.4347 204.576 43.1608 204.771 43.8509L223.661 110.359C223.938 111.329 224.523 112.183 225.329 112.792C226.134 113.4 227.115 113.73 228.124 113.732H252.11C253.136 113.733 254.133 113.393 254.944 112.765C255.756 112.138 256.336 111.259 256.593 110.266L268.01 66.8921L280.672 110.39C280.953 111.354 281.539 112.201 282.342 112.803C283.145 113.406 284.121 113.732 285.125 113.732H309.111C310.131 113.732 311.122 113.396 311.931 112.774C312.74 112.153 313.321 111.282 313.584 110.297L331.405 43.7783C331.589 43.0919 331.614 42.3721 331.476 41.6748C331.338 40.9775 331.041 40.3214 330.608 39.7573C330.176 39.1933 329.619 38.7364 328.981 38.4222C328.344 38.1079 327.642 37.9447 326.931 37.9453H312.941C311.91 37.9477 310.909 38.2925 310.095 38.9257C309.282 39.5588 308.702 40.4443 308.446 41.443L297.32 85.1071C297.221 85.5711 296.966 85.9873 296.598 86.2863C296.23 86.5853 295.77 86.749 295.295 86.7503C294.821 86.7515 294.36 86.59 293.99 86.293C293.62 85.9959 293.363 85.581 293.262 85.1175Z" fill="currentColor"/>
<path d="M355.816 1.97211C354.024 1.95118 352.246 2.28897 350.587 2.96562C348.928 3.64228 347.421 4.64412 346.155 5.91209C344.889 7.18007 343.889 8.68855 343.215 10.3487C342.541 12.0089 342.206 13.7872 342.23 15.5788C342.19 17.3559 342.519 19.1219 343.196 20.7654C343.873 22.4088 344.883 23.8941 346.163 25.1275C348.755 27.6061 352.203 28.9894 355.79 28.9894C359.376 28.9894 362.824 27.6061 365.416 25.1275C366.689 23.8906 367.691 22.4036 368.361 20.7603C369.031 19.117 369.353 17.3529 369.308 15.5788C369.332 13.7951 368.999 12.0246 368.331 10.3706C367.663 8.71664 366.672 7.2124 365.416 5.9457C364.16 4.67899 362.664 3.6752 361.015 2.99296C359.367 2.31071 357.599 1.96368 355.816 1.97211Z" fill="currentColor"/>
<path d="M362.603 37.8831H348.976C346.419 37.8831 344.347 39.9556 344.347 42.5121V109.03C344.347 111.587 346.419 113.66 348.976 113.66H362.603C365.16 113.66 367.232 111.587 367.232 109.03V42.5121C367.232 39.9556 365.16 37.8831 362.603 37.8831Z" fill="currentColor"/>
<path d="M429.506 39.5748L409.703 63.6435C409.507 63.8857 409.258 64.0805 408.976 64.2135C408.694 64.3465 408.385 64.4141 408.073 64.4115H407.036C406.485 64.4115 405.957 64.1929 405.568 63.8036C405.179 63.4143 404.96 62.8863 404.96 62.3357V4.62902C404.957 3.40038 404.467 2.22298 403.597 1.35517C402.728 0.487361 401.549 -3.07453e-06 400.32 0H386.828C385.599 -3.07453e-06 384.421 0.487361 383.551 1.35517C382.681 2.22298 382.191 3.40038 382.188 4.62902V108.989C382.188 110.219 382.677 111.399 383.547 112.269C384.417 113.14 385.597 113.628 386.828 113.628H400.32C401.551 113.628 402.731 113.14 403.601 112.269C404.471 111.399 404.96 110.219 404.96 108.989V89.7049C404.96 89.1544 405.179 88.6264 405.568 88.2372C405.957 87.8479 406.485 87.6291 407.036 87.6291H408.073C408.382 87.6304 408.687 87.6989 408.966 87.8297C409.246 87.9605 409.494 88.1507 409.693 88.3868L429.506 112.009C429.941 112.528 430.484 112.946 431.097 113.233C431.71 113.52 432.379 113.669 433.056 113.67H450.264C451.146 113.671 452.01 113.42 452.754 112.947C453.498 112.474 454.092 111.797 454.465 110.998C454.838 110.199 454.975 109.31 454.859 108.435C454.744 107.561 454.381 106.737 453.813 106.062L429.631 77.1257C429.309 76.7497 429.132 76.2712 429.132 75.7764C429.132 75.2817 429.309 74.8032 429.631 74.4272L453.813 45.4908C454.381 44.8156 454.744 43.9923 454.859 43.1179C454.975 42.2434 454.838 41.3541 454.465 40.5548C454.092 39.7555 453.498 39.0793 452.754 38.606C452.01 38.1326 451.146 37.8818 450.264 37.883H433.118C432.428 37.8787 431.746 38.0283 431.121 38.321C430.496 38.6136 429.944 39.042 429.506 39.5748Z" fill="currentColor"/>
<path d="M488.842 37.8831H475.215C472.658 37.8831 470.586 39.9556 470.586 42.5121V109.03C470.586 111.587 472.658 113.66 475.215 113.66H488.842C491.399 113.66 493.471 111.587 493.471 109.03V42.5121C493.471 39.9556 491.399 37.8831 488.842 37.8831Z" fill="currentColor"/>
<path d="M482.034 1.97212C480.246 1.96243 478.474 2.30806 476.821 2.98895C475.169 3.66984 473.667 4.67241 472.405 5.93839C471.143 7.20438 470.145 8.70855 469.469 10.3635C468.794 12.0185 468.453 13.7913 468.469 15.5789C468.428 17.3569 468.758 19.1239 469.437 20.7677C470.116 22.4115 471.129 23.8962 472.412 25.1275C475.003 27.6054 478.449 28.9885 482.034 28.9885C485.618 28.9885 489.065 27.6054 491.655 25.1275C492.936 23.8947 493.948 22.4097 494.627 20.7663C495.306 19.1229 495.637 17.3566 495.599 15.5789C495.609 13.7948 495.264 12.0265 494.586 10.3763C493.908 8.72613 492.909 7.22689 491.647 5.96532C490.386 4.70375 488.886 3.70488 487.236 3.02658C485.586 2.34827 483.818 2.00398 482.034 2.01361V1.97212Z" fill="currentColor"/>
<path d="M673.971 43.6019C665.889 35.9907 655.939 32.1851 644.121 32.1851C632.303 32.1851 622.346 35.9907 614.25 43.6019C606.169 51.2823 602.128 61.035 602.128 72.86C602.128 84.6851 606.169 94.4481 614.25 102.149C622.332 109.83 632.286 113.67 644.111 113.67C655.936 113.67 665.886 109.83 673.96 102.149C682.042 94.4689 686.083 84.7196 686.083 72.9015C686.083 61.0834 682.046 51.3169 673.971 43.6019ZM656.897 85.844C653.434 89.0927 648.864 90.9008 644.116 90.9008C639.367 90.9008 634.797 89.0927 631.334 85.844C627.973 82.3615 626.095 77.7104 626.095 72.8704C626.095 68.0304 627.973 63.3793 631.334 59.8968C634.797 56.6481 639.367 54.84 644.116 54.84C648.864 54.84 653.434 56.6481 656.897 59.8968C660.258 63.3793 662.137 68.0304 662.137 72.8704C662.137 77.7104 660.258 82.3615 656.897 85.844Z" fill="currentColor"/>
<path d="M580.312 43.6537C572.23 35.9733 562.277 32.1331 550.451 32.1331C544.874 32.0689 539.333 33.0475 534.115 35.0185C533.795 35.1581 533.446 35.2149 533.098 35.1837C532.751 35.1524 532.417 35.0341 532.127 34.8396C531.837 34.6451 531.601 34.3808 531.441 34.071C531.28 33.7612 531.201 33.416 531.209 33.0672V4.62903C531.209 4.02027 531.089 3.41746 530.856 2.85516C530.622 2.29287 530.28 1.78212 529.85 1.35214C529.419 0.922162 528.907 0.581424 528.344 0.349407C527.781 0.117389 527.178 -0.0013533 526.57 1.1635e-05H513.077C512.468 -0.0013533 511.865 0.117389 511.302 0.349407C510.74 0.581424 510.228 0.922162 509.797 1.35214C509.366 1.78212 509.024 2.29287 508.791 2.85516C508.558 3.41746 508.438 4.02027 508.438 4.62903V72.8911C508.438 84.723 512.482 94.4758 520.571 102.149C523.712 105.146 527.305 107.629 531.219 109.508C537.234 112.338 543.815 113.758 550.462 113.659C562.294 113.659 572.247 109.823 580.322 102.149C588.397 94.4758 592.441 84.723 592.455 72.8911C592.455 61.073 588.407 51.3272 580.312 43.6537ZM563.238 85.8855C559.775 89.1342 555.205 90.9422 550.457 90.9422C545.708 90.9422 541.138 89.1342 537.675 85.8855C534.314 82.4029 532.436 77.7518 532.436 72.9119C532.436 68.0719 534.314 63.4208 537.675 59.9382C541.138 56.6896 545.708 54.8815 550.457 54.8815C555.205 54.8815 559.775 56.6896 563.238 59.9382C566.599 63.4208 568.478 68.0719 568.478 72.9119C568.478 77.7518 566.599 82.4029 563.238 85.8855Z" fill="currentColor"/>
<path d="M727.775 81.5264C727.755 82.7874 727.959 84.0419 728.377 85.2317C728.796 86.4025 729.47 87.4659 730.349 88.3454C730.86 88.8529 731.44 89.2861 732.072 89.6323C732.289 89.7737 732.518 89.8953 732.757 89.9956H732.84C734.307 90.6146 735.888 90.9153 737.48 90.8778H744.361C745.589 90.8778 746.768 91.3652 747.638 92.233C748.507 93.1008 748.997 94.2782 749 95.5068V108.999C748.997 110.228 748.507 111.405 747.638 112.273C746.768 113.141 745.589 113.628 744.361 113.628H733.982C724.987 113.628 717.888 111.38 712.684 106.882C707.481 102.385 704.879 96.1953 704.879 88.3143V61.0696C704.879 60.5191 704.661 59.9911 704.271 59.6018C703.882 59.2125 703.354 58.9938 702.804 58.9938H696.514C695.905 58.9938 695.302 58.8737 694.74 58.6405C694.178 58.4072 693.667 58.0653 693.237 57.6343C692.807 57.2034 692.466 56.6919 692.234 56.129C692.002 55.5662 691.884 54.9632 691.885 54.3544V42.564C691.885 41.3363 692.373 40.1589 693.241 39.2908C694.109 38.4227 695.286 37.935 696.514 37.935H702.804C703.354 37.935 703.882 37.7163 704.271 37.327C704.661 36.9377 704.879 36.4098 704.879 35.8592V20.9032C704.879 19.8359 705.248 18.8015 705.924 17.975C706.599 17.1484 707.539 16.5806 708.585 16.3676L722.202 13.5757C722.875 13.437 723.571 13.4499 724.238 13.6136C724.906 13.7772 725.528 14.0874 726.061 14.5217C726.594 14.956 727.023 15.5035 727.318 16.1244C727.612 16.7453 727.765 17.424 727.765 18.1113V35.7554C727.765 36.306 727.984 36.8339 728.373 37.2232C728.762 37.6125 729.29 37.8312 729.841 37.8312H744.319C745.548 37.8312 746.726 38.3186 747.596 39.1864C748.466 40.0542 748.956 41.2316 748.959 42.4602V54.261C748.959 55.4915 748.47 56.6715 747.6 57.5416C746.73 58.4116 745.55 58.9004 744.319 58.9004H729.841C729.29 58.9004 728.762 59.1191 728.373 59.5084C727.984 59.8977 727.765 60.4256 727.765 60.9762L727.775 81.5264Z" fill="currentColor"/>
</svg>
